<mxfile host="app.diagrams.net" agent="Mozilla/5.0 (Windows NT 10.0; Win64; x64) AppleWebKit/537.36 (KHTML, like Gecko) Chrome/128.0.0.0 Safari/537.36" version="24.7.10">
  <diagram id="C5RBs43oDa-KdzZeNtuy" name="Page-1">
    <mxGraphModel dx="1674" dy="746" grid="1" gridSize="10" guides="1" tooltips="1" connect="1" arrows="1" fold="1" page="1" pageScale="1" pageWidth="827" pageHeight="1169" math="0" shadow="0">
      <root>
        <mxCell id="WIyWlLk6GJQsqaUBKTNV-0" />
        <mxCell id="WIyWlLk6GJQsqaUBKTNV-1" parent="WIyWlLk6GJQsqaUBKTNV-0" />
        <mxCell id="WIyWlLk6GJQsqaUBKTNV-2" value="" style="rounded=0;html=1;jettySize=auto;orthogonalLoop=1;fontSize=11;endArrow=block;endFill=0;endSize=8;strokeWidth=1;shadow=0;labelBackgroundColor=none;edgeStyle=orthogonalEdgeStyle;" parent="WIyWlLk6GJQsqaUBKTNV-1" edge="1">
          <mxGeometry relative="1" as="geometry">
            <mxPoint x="220" y="120" as="sourcePoint" />
            <mxPoint x="220" y="170" as="targetPoint" />
          </mxGeometry>
        </mxCell>
        <mxCell id="s5kbIIotAwDgNyXJk3fb-0" value="Inicio" style="ellipse;whiteSpace=wrap;html=1;aspect=fixed;" vertex="1" parent="WIyWlLk6GJQsqaUBKTNV-1">
          <mxGeometry x="170" y="20" width="100" height="100" as="geometry" />
        </mxCell>
        <mxCell id="s5kbIIotAwDgNyXJk3fb-25" value="" style="edgeStyle=orthogonalEdgeStyle;rounded=0;orthogonalLoop=1;jettySize=auto;html=1;" edge="1" parent="WIyWlLk6GJQsqaUBKTNV-1" target="s5kbIIotAwDgNyXJk3fb-3">
          <mxGeometry relative="1" as="geometry">
            <mxPoint x="225" y="320" as="sourcePoint" />
          </mxGeometry>
        </mxCell>
        <mxCell id="s5kbIIotAwDgNyXJk3fb-26" value="" style="edgeStyle=orthogonalEdgeStyle;rounded=0;orthogonalLoop=1;jettySize=auto;html=1;fillColor=#FFFF99;" edge="1" parent="WIyWlLk6GJQsqaUBKTNV-1" source="s5kbIIotAwDgNyXJk3fb-3" target="s5kbIIotAwDgNyXJk3fb-8">
          <mxGeometry relative="1" as="geometry" />
        </mxCell>
        <mxCell id="s5kbIIotAwDgNyXJk3fb-3" value="&quot;Ingrese la moneda origen para la coversion (Eur/USD): &quot;" style="shape=parallelogram;perimeter=parallelogramPerimeter;whiteSpace=wrap;html=1;fixedSize=1;fillColor=#FFFF99;" vertex="1" parent="WIyWlLk6GJQsqaUBKTNV-1">
          <mxGeometry x="115" y="380" width="220" height="120" as="geometry" />
        </mxCell>
        <mxCell id="s5kbIIotAwDgNyXJk3fb-27" value="" style="edgeStyle=orthogonalEdgeStyle;rounded=0;orthogonalLoop=1;jettySize=auto;html=1;" edge="1" parent="WIyWlLk6GJQsqaUBKTNV-1" source="s5kbIIotAwDgNyXJk3fb-8" target="s5kbIIotAwDgNyXJk3fb-9">
          <mxGeometry relative="1" as="geometry" />
        </mxCell>
        <mxCell id="s5kbIIotAwDgNyXJk3fb-8" value="Mostrar mensaje: &quot;Ingrese el monto a convertir:  &quot;" style="shape=parallelogram;perimeter=parallelogramPerimeter;whiteSpace=wrap;html=1;fixedSize=1;fillColor=#FFFF99;" vertex="1" parent="WIyWlLk6GJQsqaUBKTNV-1">
          <mxGeometry x="115" y="570" width="220" height="120" as="geometry" />
        </mxCell>
        <mxCell id="s5kbIIotAwDgNyXJk3fb-12" value="" style="edgeStyle=orthogonalEdgeStyle;rounded=0;orthogonalLoop=1;jettySize=auto;html=1;" edge="1" parent="WIyWlLk6GJQsqaUBKTNV-1" source="s5kbIIotAwDgNyXJk3fb-9" target="s5kbIIotAwDgNyXJk3fb-10">
          <mxGeometry relative="1" as="geometry" />
        </mxCell>
        <mxCell id="s5kbIIotAwDgNyXJk3fb-28" value="" style="edgeStyle=orthogonalEdgeStyle;rounded=0;orthogonalLoop=1;jettySize=auto;html=1;fillColor=#CCFF99;" edge="1" parent="WIyWlLk6GJQsqaUBKTNV-1" source="s5kbIIotAwDgNyXJk3fb-9" target="s5kbIIotAwDgNyXJk3fb-17">
          <mxGeometry relative="1" as="geometry" />
        </mxCell>
        <mxCell id="s5kbIIotAwDgNyXJk3fb-9" value="Si tipo_conversion==&quot;EUR&quot;" style="rhombus;whiteSpace=wrap;html=1;fillColor=#CCFF99;" vertex="1" parent="WIyWlLk6GJQsqaUBKTNV-1">
          <mxGeometry x="130" y="740" width="190" height="190" as="geometry" />
        </mxCell>
        <mxCell id="s5kbIIotAwDgNyXJk3fb-30" value="" style="edgeStyle=orthogonalEdgeStyle;rounded=0;orthogonalLoop=1;jettySize=auto;html=1;" edge="1" parent="WIyWlLk6GJQsqaUBKTNV-1" source="s5kbIIotAwDgNyXJk3fb-10" target="s5kbIIotAwDgNyXJk3fb-11">
          <mxGeometry relative="1" as="geometry" />
        </mxCell>
        <mxCell id="s5kbIIotAwDgNyXJk3fb-10" value="Calcular resultado = monto_a_convertir * tipo_cambio_eur_a_mxn" style="rounded=0;whiteSpace=wrap;html=1;fillColor=#66B2FF;" vertex="1" parent="WIyWlLk6GJQsqaUBKTNV-1">
          <mxGeometry x="380" y="775" width="250" height="120" as="geometry" />
        </mxCell>
        <mxCell id="s5kbIIotAwDgNyXJk3fb-11" value="Mostrar &quot;El esultado de la conversion de EUR a MXN es: &quot;, resultado" style="shape=parallelogram;perimeter=parallelogramPerimeter;whiteSpace=wrap;html=1;fixedSize=1;fillColor=#FFFF99;" vertex="1" parent="WIyWlLk6GJQsqaUBKTNV-1">
          <mxGeometry x="710" y="745" width="240" height="180" as="geometry" />
        </mxCell>
        <mxCell id="s5kbIIotAwDgNyXJk3fb-16" value="si" style="text;html=1;align=center;verticalAlign=middle;resizable=0;points=[];autosize=1;strokeColor=none;fillColor=none;" vertex="1" parent="WIyWlLk6GJQsqaUBKTNV-1">
          <mxGeometry x="305" y="788" width="30" height="30" as="geometry" />
        </mxCell>
        <mxCell id="s5kbIIotAwDgNyXJk3fb-29" value="" style="edgeStyle=orthogonalEdgeStyle;rounded=0;orthogonalLoop=1;jettySize=auto;html=1;" edge="1" parent="WIyWlLk6GJQsqaUBKTNV-1" source="s5kbIIotAwDgNyXJk3fb-17" target="s5kbIIotAwDgNyXJk3fb-21">
          <mxGeometry relative="1" as="geometry" />
        </mxCell>
        <mxCell id="s5kbIIotAwDgNyXJk3fb-32" value="" style="edgeStyle=orthogonalEdgeStyle;rounded=0;orthogonalLoop=1;jettySize=auto;html=1;" edge="1" parent="WIyWlLk6GJQsqaUBKTNV-1" source="s5kbIIotAwDgNyXJk3fb-17" target="s5kbIIotAwDgNyXJk3fb-18">
          <mxGeometry relative="1" as="geometry" />
        </mxCell>
        <mxCell id="s5kbIIotAwDgNyXJk3fb-17" value="Si tipo_conversion==&quot;USD&quot;" style="rhombus;whiteSpace=wrap;html=1;fillColor=#CCFF99;" vertex="1" parent="WIyWlLk6GJQsqaUBKTNV-1">
          <mxGeometry x="137.5" y="990" width="175" height="170" as="geometry" />
        </mxCell>
        <mxCell id="s5kbIIotAwDgNyXJk3fb-33" value="" style="edgeStyle=orthogonalEdgeStyle;rounded=0;orthogonalLoop=1;jettySize=auto;html=1;" edge="1" parent="WIyWlLk6GJQsqaUBKTNV-1" source="s5kbIIotAwDgNyXJk3fb-18" target="s5kbIIotAwDgNyXJk3fb-19">
          <mxGeometry relative="1" as="geometry" />
        </mxCell>
        <mxCell id="s5kbIIotAwDgNyXJk3fb-18" value="Mostrar:&quot;Tipo de conversion no valido&quot;" style="shape=parallelogram;perimeter=parallelogramPerimeter;whiteSpace=wrap;html=1;fixedSize=1;align=center;fillColor=#FFFF99;" vertex="1" parent="WIyWlLk6GJQsqaUBKTNV-1">
          <mxGeometry x="107.5" y="1240" width="235" height="150" as="geometry" />
        </mxCell>
        <mxCell id="s5kbIIotAwDgNyXJk3fb-19" value="Fin" style="ellipse;whiteSpace=wrap;html=1;aspect=fixed;" vertex="1" parent="WIyWlLk6GJQsqaUBKTNV-1">
          <mxGeometry x="185" y="1430" width="80" height="80" as="geometry" />
        </mxCell>
        <mxCell id="s5kbIIotAwDgNyXJk3fb-31" value="" style="edgeStyle=orthogonalEdgeStyle;rounded=0;orthogonalLoop=1;jettySize=auto;html=1;" edge="1" parent="WIyWlLk6GJQsqaUBKTNV-1" source="s5kbIIotAwDgNyXJk3fb-21" target="s5kbIIotAwDgNyXJk3fb-22">
          <mxGeometry relative="1" as="geometry" />
        </mxCell>
        <mxCell id="s5kbIIotAwDgNyXJk3fb-21" value="Calcular resultado = monto_a_convertir * tipo_cambio_usd_a_mxn" style="rounded=0;whiteSpace=wrap;html=1;fillColor=#66B2FF;" vertex="1" parent="WIyWlLk6GJQsqaUBKTNV-1">
          <mxGeometry x="380" y="1015" width="250" height="120" as="geometry" />
        </mxCell>
        <mxCell id="s5kbIIotAwDgNyXJk3fb-22" value="Mostrar &quot;El resultado de la conversión de USD a MXN es: &quot;, resultado" style="shape=parallelogram;perimeter=parallelogramPerimeter;whiteSpace=wrap;html=1;fixedSize=1;fillColor=#FFFF99;" vertex="1" parent="WIyWlLk6GJQsqaUBKTNV-1">
          <mxGeometry x="700" y="985" width="240" height="180" as="geometry" />
        </mxCell>
        <mxCell id="s5kbIIotAwDgNyXJk3fb-34" value="si" style="text;html=1;align=center;verticalAlign=middle;resizable=0;points=[];autosize=1;strokeColor=none;fillColor=none;" vertex="1" parent="WIyWlLk6GJQsqaUBKTNV-1">
          <mxGeometry x="315" y="1038" width="30" height="30" as="geometry" />
        </mxCell>
        <mxCell id="s5kbIIotAwDgNyXJk3fb-36" value="&lt;div&gt;Definir tipo_cambio_eur_a_mxn = 23.7&lt;/div&gt;&lt;div&gt;Definir tipo_cambio_usd_a_mxn = 20.75&lt;/div&gt;" style="rounded=0;whiteSpace=wrap;html=1;fillColor=#66B2FF;" vertex="1" parent="WIyWlLk6GJQsqaUBKTNV-1">
          <mxGeometry x="107.5" y="190" width="232.5" height="110" as="geometry" />
        </mxCell>
      </root>
    </mxGraphModel>
  </diagram>
</mxfile>
